<svg viewBox="0 -960 960 960" width="512" height="512" xmlns="http://www.w3.org/2000/svg">
    <defs></defs>
    <path
        d="M160-800q-17 0-28.5-11.5T120-840q0-17 11.5-28.5T160-880h40q17 0 28.5 11.5T240-840q0 17-11.5 28.5T200-800h-40Zm34 560-16 80h262v-80H194Zm23-432 28-28q11-11 27.5-11t28.5 11q12 12 12 28.5T301-643l-28 28q-11 11-27.5 11T217-615q-12-12-12-28.5t12-28.5Zm-7 352h230v-80H226l-16 80Zm270-360q-83 0-141.5-58.5T280-880h80q0 50 35 85t85 35q50 0 85-35t35-85h80q0 83-58.5 141.5T480-680Zm0-200Zm-40 320v-40q0-17 11.5-28.5T480-640q17 0 28.5 11.5T520-600v40q0 17-11.5 28.5T480-520q-17 0-28.5-11.5T440-560Zm80 400h262l-16-80H520v80Zm0-160h230l-16-80H520v80Zm167-296-28-28q-11-11-11.5-27.5T659-700q11-11 28-11t28 11l29 28q12 11 12 27.5T744-616q-12 12-28.5 12T687-616Zm113-184
  h-80v-80h80q17 0 28.5 11.5T840-840q0 17-11.5 28.5T800-800ZM99-176l48-240q5-28 27.5-46t51.5-18h508q29 0 51.5 18t27.5 46l48 240q8 38-16.5 67T782-80H178q-38 0-62.5-29T99-176Z">
    </path>
    <path
        d="M 177.182 -783.892 C 165.848 -783.892 156.348 -787.725 148.682 -795.392 C 141.015 -803.059 137.182 -812.559 137.182 -823.892 C 137.182 -835.225 141.015 -844.725 148.682 -852.392 C 156.348 -860.059 165.848 -863.892 177.182 -863.892 L 217.182 -863.892 C 228.515 -863.892 238.015 -860.059 245.682 -852.392 C 253.348 -844.725 257.182 -835.225 257.182 -823.892 C 257.182 -812.559 253.348 -803.059 245.682 -795.392 C 238.015 -787.725 228.515 -783.892 217.182 -783.892 L 177.182 -783.892 Z M 211.182 -223.892 L 195.182 -143.892 L 457.182 -143.892 L 457.182 -223.892 L 211.182 -223.892 Z M 234.182 -655.892 L 262.182 -683.892 C 269.515 -691.225 278.682 -694.892 289.682 -694.892 C 300.682 -694.892 310.182 -691.225 318.182 -683.892 C 326.182 -675.892 330.182 -666.392 330.182 -655.392 C 330.182 -644.392 326.182 -634.892 318.182 -626.892 L 290.182 -598.892 C 282.848 -591.559 273.682 -587.892 262.682 -587.892 C 251.682 -587.892 242.182 -591.559 234.182 -598.892 C 226.182 -606.892 222.182 -616.392 222.182 -627.392 C 222.182 -638.392 226.182 -647.892 234.182 -655.892 Z M 227.182 -303.892 L 457.182 -303.892 L 457.182 -383.892 L 243.182 -383.892 L 227.182 -303.892 Z M 497.182 -663.892 C 441.848 -663.892 394.682 -683.392 355.682 -722.392 C 316.682 -761.392 297.182 -808.559 297.182 -863.892 L 377.182 -863.892 C 377.182 -830.559 388.848 -802.225 412.182 -778.892 C 435.515 -755.559 463.848 -743.892 497.182 -743.892 C 530.515 -743.892 558.848 -755.559 582.182 -778.892 C 605.515 -802.225 617.182 -830.559 617.182 -863.892 L 697.182 -863.892 C 697.182 -808.559 677.682 -761.392 638.682 -722.392 C 599.682 -683.392 552.515 -663.892 497.182 -663.892 Z M 497.182 -863.892 Z M 457.182 -543.892 L 457.182 -583.892 C 457.182 -595.225 461.015 -604.725 468.682 -612.392 C 476.348 -620.059 485.848 -623.892 497.182 -623.892 C 508.515 -623.892 518.015 -620.059 525.682 -612.392 C 533.348 -604.725 537.182 -595.225 537.182 -583.892 L 537.182 -543.892 C 537.182 -532.559 533.348 -523.059 525.682 -515.392 C 518.015 -507.725 508.515 -503.892 497.182 -503.892 C 485.848 -503.892 476.348 -507.725 468.682 -515.392 C 461.015 -523.059 457.182 -532.559 457.182 -543.892 Z M 537.182 -143.892 L 799.182 -143.892 L 783.182 -223.892 L 537.182 -223.892 L 537.182 -143.892 Z M 537.182 -303.892 L 767.182 -303.892 L 751.182 -383.892 L 537.182 -383.892 L 537.182 -303.892 Z M 704.182 -599.892 L 676.182 -627.892 C 668.848 -635.225 665.015 -644.392 664.682 -655.392 C 664.348 -666.392 668.182 -675.892 676.182 -683.892 C 683.515 -691.225 692.848 -694.892 704.182 -694.892 C 715.515 -694.892 724.848 -691.225 732.182 -683.892 L 761.182 -655.892 C 769.182 -648.559 773.182 -639.392 773.182 -628.392 C 773.182 -617.392 769.182 -607.892 761.182 -599.892 C 753.182 -591.892 743.682 -587.892 732.682 -587.892 C 721.682 -587.892 712.182 -591.892 704.182 -599.892 Z M 817.182 -783.892 L 737.182 -783.892 L 737.182 -863.892 L 817.182 -863.892 C 828.515 -863.892 838.015 -860.059 845.682 -852.392 C 853.348 -844.725 857.182 -835.225 857.182 -823.892 C 857.182 -812.559 853.348 -803.059 845.682 -795.392 C 838.015 -787.725 828.515 -783.892 817.182 -783.892 Z M 116.182 -159.892 L 164.182 -399.892 C 167.515 -418.559 176.682 -433.892 191.682 -445.892 C 206.682 -457.892 223.848 -463.892 243.182 -463.892 L 751.182 -463.892 C 770.515 -463.892 787.682 -457.892 802.682 -445.892 C 817.682 -433.892 826.848 -418.559 830.182 -399.892 L 878.182 -159.892 C 883.515 -134.559 878.015 -112.225 861.682 -92.892 C 845.348 -73.559 824.515 -63.892 799.182 -63.892 L 195.182 -63.892 C 169.848 -63.892 149.015 -73.559 132.682 -92.892 C 116.348 -112.225 110.848 -134.559 116.182 -159.892 Z"
        style="fill: rgba(0, 0, 0, 0.306);"></path>
</svg>
